<?xml version="1.0" encoding="UTF-8"?>
<svg id="Layer_1" data-name="Layer 1" xmlns="http://www.w3.org/2000/svg" viewBox="0 0 224.24 352.78" width="30" height="30">
  <path d="m18.72,125.96c1.27-9.84,1.18-19.73,1.98-29.61,1.4-17.42,5-35.07,1.51-52.46-1.79-8.93-4.68-18.14-11.22-25.38-3.27-3.62-6.38-7.39-9.44-11.19C.39,5.88-.54,4,.36,2.22,1.27.44,3.26.42,5.17.13c6.09-.93,10.58,3.34,15.21,5.49,14.84,6.89,29.12,15.04,43.25,23.45,16.21,9.64,30.73,21.63,46.76,31.56,11.31,7.01,21.69,15.93,32.93,23.41,13.6,9.07,26.99,18.32,41.9,25.39,11.71,5.56,23.17,11.6,35.47,15.75,3.31,1.12,3.58,3.39,3.55,6.13-.03,3.38-2.06,3.3-4.79,3.42-9.86.44-18.92-1.85-27.42-6.73-1.11-.64-2.46-1.64-3.53-1.46-21.5,3.6-42.53,8.67-61.5,20.12-3.41,2.06-3.21,4.44-1.4,7.09,17.07,24.98,30.98,51.79,44.98,78.51,7.34,14.01,13.07,28.86,20.02,43.09,7.88,16.14,12.87,33.46,20.79,49.61,3.51,7.16,5.51,15.08,10.16,21.77,1.34,1.93,1.46,4.4-.52,5.67-1.87,1.19-3.48-.77-4.58-2.19-4.74-6.16-9.63-12.22-13.96-18.67-9.18-13.69-18.23-27.46-26.96-41.44-7.72-12.36-15.65-24.68-22.11-37.7-4.39-8.84-10.88-16.17-15.3-24.89-7.13-14.09-14.74-27.93-22.07-41.92-4.21-8.04-8.28-16.15-12.38-24.25-1.34-2.64-2.21-3.69-5.85-1.95-18.08,8.66-36.45,16.71-54.72,24.96-10.68,4.82-12.22,3.66-17.96-6.52-7.35-13.05-7.12-26.89-6.61-40.99.13-3.63.13-7.27.19-10.9ZM15.1,13.22c5.93,8.7,11.8,17.64,13.63,27.32,4.08,21.57,1.03,43.53-.95,65.16-1.36,14.83-3.29,29.66-2.42,44.45.53,8.88,1.13,18.32,6.41,26.43,1.73,2.66,2.89,3.74,6.22,2.49,7.5-2.81,14.32-7.05,21.6-10.11,18.19-7.65,35.14-17.78,53.31-25.43,17.96-7.57,35.94-15,55.04-19.28,1.67-.37,4.38.95,4.7-1.52.31-2.35-1.62-3.73-3.93-5.08-12.91-7.48-25.89-14.93-38.29-23.22-18.49-12.35-36.41-25.54-54.77-38.09-14.17-9.68-26.4-21.71-39.96-32.07-6.14-4.69-12.67-9.17-20.59-11.04Z"/>
</svg>