<?xml version="1.0" encoding="UTF-8"?>
<svg id="Layer_1" data-name="Layer 1" xmlns="http://www.w3.org/2000/svg" viewBox="0 0 41.61 26.33"  width="40" height="40">
  <path d="m3.98,9.98c2.17-.27,4.32-.66,6.4-1.25,1.2-.34,2.38-.83,3.56-1.27.57-.22,1.16-.35,1.74-.54,1.9-.62,3.8-1.23,5.7-1.85,1.47-.48,2.87-1.15,4.32-1.64,1.58-.53,3.05-1.31,4.63-1.85,1-.35,1.99-.69,3.04-.8.17-.02.35-.1.5-.19.15-.09.27-.25.21-.45-.06-.19-.26-.13-.4-.13C32.21,0,30.76,0,29.3.39c-1.87.47-3.65,1.17-5.51,1.65-2.77.72-5.38,1.9-8.08,2.81-2.63.89-5.31,1.63-7.93,2.53-2.05.71-4.17,1.19-6.22,1.93-.28.1-.61.06-.91.07-.4.01-.58.22-.64.61-.06.42.19.51.49.61,2.06.68,4.01,1.63,6,2.49,1.41.61,2.81,1.23,4.26,1.74,1.12.39,2.18.93,3.28,1.38,1.66.67,3.33,1.32,4.99,1.98,1.45.57,2.9,1.13,4.34,1.72,1.74.7,3.48,1.42,5.21,2.14,1.58.66,3.15,1.33,4.74,1.98,1.82.74,3.63,1.52,5.48,2.15.69.24,1.51.12,2.27.15.2,0,.43,0,.51-.25.08-.24-.02-.45-.22-.61-.69-.57-1.52-.88-2.29-1.31-1.79-1-3.7-1.76-5.56-2.59-1.91-.85-3.86-1.61-5.79-2.4-1.03-.43-2.06-.88-3.09-1.31-2.03-.84-4.02-1.77-6.08-2.54-1.44-.54-2.82-1.25-4.27-1.78-1.94-.71-3.88-1.43-5.84-2.09-1.48-.5-2.99-.89-4.46-1.45v-.02Z"/>
</svg>