<?xml version="1.0" encoding="UTF-8"?>
<svg id="Layer_0_Image" data-name="Layer 0 Image" xmlns="http://www.w3.org/2000/svg" viewBox="0 0 144.26 265.23"  width="35" height="35">
  <path d="m130.25,265.23c0-1.11-1.03-.71-1.49-.85-4.02-1.26-4.27-4.88-5.16-8.07-1.55-5.53-3.02-11.07-4.57-16.6-3.19-11.35-8.02-22.1-12.93-32.74-4.61-10.01-8.6-20.42-15.36-29.33-1.86-2.46-4.82-1.74-7.24-2.38-6.82-1.8-13.8-2.98-20.66-4.66-9.41-2.31-18.01-6.71-26.36-11.41-12.97-7.31-23.57-17.42-32.03-29.67C1.99,125.96-.08,122.1,0,117.53c.05-2.89,2.35-4.63,6.44-4.93,7.18-.53,13.92,1.17,20.59,3.66,10.59,3.94,20.24,9.69,29.95,15.3,3.45,1.99,5.45,5.96,9.14,7.87,1.81.94,3.34,2.44,5.59,2.46,1.41.01,1.49-.53,1-1.59-3.39-7.22-6.74-14.45-10.18-21.65-4.46-9.34-8.98-18.66-13.5-27.98-3.81-7.85-7.76-15.64-11.5-23.53-3.69-7.79-7.27-15.63-10.74-23.52-2.99-6.79-5.86-13.64-8.61-20.52-2.71-6.79-4.16-13.78-2.44-21.12.28-1.19,1.06-1.67,2.04-1.77,4.08-.44,7.97-.32,11.66,2.15,7.26,4.87,13.21,11.07,18.59,17.83,4.22,5.31,8.94,10.26,12.4,16.13,3.39,5.76,6.47,11.7,9.7,17.55.27.5.44,1.31,1.21,1.18,5.91-1,7.69,3.55,10.01,7.39.22.37.42.76.7,1.08.67.78,1.26,1.85,2.52,1.56,1.41-.33.53-1.58.78-2.38.61-1.96.53-4.04.77-6.04.37-3.04,2.16-3.31,4.5-3.61,6.39-.82,10.1,2.11,12.55,7.83,3.43,8,8.75,14.99,12.8,22.67,2.05,3.88,3.16,8.25,4.6,12.44,1.88,5.48,3.74,10.97,5.45,16.5,2.93,9.45,5.7,18.96,8.64,28.41,2.37,7.61,5.25,15.08,7.26,22.78,2.13,8.17,2.92,16.58,1.88,25.04-.13,1.04-.52,2.57-1.66,2.49-1.04-.07-1.4-1.72-1.52-2.67-.99-7.98-3.16-15.71-5.25-23.41-1.37-5.06-3.88-9.85-6.18-14.61-2.48-5.11-3.67-10.64-5.6-15.92-2.3-6.31-4.44-12.69-6.66-19.03-2.89-8.26-5.82-16.5-8.68-24.77-2.91-8.43-5.98-16.79-10.58-24.49-1.14-1.91-2.09-3.93-3.19-5.86-.86-1.49-2.36-1.64-3.79-1.29-1.3.32-.64,1.68-.89,2.56-1.87,6.54,1.77,11.35,4.71,16.7,4.32,7.85,8.15,16.02,10.92,24.62,1.77,5.51,4.06,10.85,5.87,16.35,2.41,7.31,5.16,14.55,5.92,22.3.13,1.27.13,3.11-1.27,3.43-2.38.54-3.46-1.52-3.97-3.34-1.47-5.33-4.49-9.92-6.85-14.81-2.58-5.33-4.33-10.97-6.7-16.37-2.24-5.1-4.3-10.27-6.29-15.48-2.04-5.36-3.95-10.77-5.81-16.2-1.82-5.3-5.28-9.64-8.2-14.29-.48-.76-1.44-1.11-2.34-.52-.71.47-.52,1.25-.12,1.74,3.37,4.12,4.45,9.3,6.61,13.98,2.23,4.84,4.58,9.64,6.63,14.55,2.93,7.04,5.62,14.18,8.46,21.26,2.84,7.08,5.72,14.15,8.63,21.2,1.21,2.93,2.01,5.9,1.7,9.09-.12,1.2-.48,2.3-1.81,2.61-1.44.33-2.44-.51-3.27-1.53-2.43-2.96-3.5-6.66-5.24-9.99-3.94-7.54-7.64-15.2-11.53-22.77-5.63-10.96-10.8-22.09-15.05-33.71-3.76-10.29-8.56-20.19-14.43-29.53-3.89-6.19-7.15-12.8-11.32-18.79-4.81-6.9-10.31-13.33-15.51-19.96-.07-.09-.15-.17-.24-.23-1.05-.63-2.36-2.02-3.29-1.14-1.04.98-.38,2.89.13,4.16,1.56,3.89,3.43,7.66,5.13,11.5,3.34,7.58,6.48,15.24,9.99,22.73,2.86,6.12,6.15,12.04,9.23,18.05,5.47,10.68,11.74,20.93,16.77,31.87,4.81,10.49,10.39,20.62,15.66,30.89,4.47,8.72,8.98,17.41,13.47,26.12,4.64,9,9.32,17.98,13.91,27.01,4.49,8.83,8.85,17.74,13.35,26.56,2.41,4.71,4.62,9.51,6.27,14.52,2.37,7.17,4.39,14.45,6.72,21.63,1.42,4.39,1.88,8.88,2.23,13.44.21,2.79-1.53,4.03-3.52,5.18-.33.19-.77.16-.77.69h-4.32ZM9.3,117.04c-1.51-.12-3.69-.5-3.58,1.65.14,2.62.72,5.5,2.47,7.55,6.62,7.74,14.52,14.14,23.09,19.5,8.37,5.24,16.6,10.82,25.82,14.61,7.71,3.17,14.94,7.59,23.43,8.6,1.66.2,3.35.2,5.02.3-.64-1.5-1.29-2.99-1.9-4.5-1.76-4.38-4.83-8.21-5.49-13.05-.23-1.72-1.21-2.8-2.94-3.12-1.72-.32-3.64-.22-5.14-.97-3.76-1.87-7.38-4.03-10.96-6.23-9.79-6-18.56-13.63-29.25-18.23-6.63-2.86-12.98-6.5-20.57-6.1Z"/>
</svg>