<?xml version="1.0" encoding="UTF-8"?>
<svg id="Layer_1" data-name="Layer 1" xmlns="http://www.w3.org/2000/svg" viewBox="0 0 26.33 41.62"  width="40" height="40">
  <path d="m9.99,3.99c-.27,2.17-.66,4.32-1.25,6.4-.34,1.2-.83,2.38-1.27,3.56-.22.57-.35,1.16-.54,1.74-.62,1.9-1.23,3.8-1.85,5.7-.48,1.47-1.15,2.87-1.64,4.32-.53,1.58-1.31,3.05-1.85,4.63-.35,1-.69,1.99-.8,3.04-.02.17-.1.35-.19.5-.09.15-.25.27-.45.21-.19-.06-.13-.26-.13-.4,0-1.47,0-2.92.38-4.38.47-1.87,1.17-3.65,1.65-5.51.72-2.77,1.9-5.38,2.81-8.08.89-2.63,1.63-5.31,2.53-7.93.71-2.05,1.19-4.17,1.93-6.22.1-.28.06-.61.07-.91.01-.4.22-.58.61-.64.42-.06.51.19.61.49.68,2.06,1.63,4.01,2.49,6,.61,1.41,1.23,2.81,1.74,4.26.39,1.12.93,2.18,1.38,3.28.67,1.66,1.32,3.33,1.98,4.99.57,1.45,1.13,2.9,1.72,4.34.7,1.74,1.42,3.48,2.14,5.21.66,1.58,1.33,3.15,1.98,4.74.74,1.82,1.52,3.63,2.15,5.48.24.69.12,1.51.15,2.27,0,.2,0,.43-.25.51-.24.08-.45-.02-.61-.22-.57-.69-.88-1.52-1.31-2.29-1-1.79-1.76-3.7-2.59-5.56-.85-1.91-1.61-3.86-2.4-5.79-.43-1.03-.88-2.06-1.31-3.09-.84-2.03-1.77-4.02-2.54-6.08-.54-1.44-1.25-2.82-1.78-4.27-.71-1.94-1.43-3.88-2.09-5.84-.5-1.48-.89-2.99-1.45-4.46Z"/>
</svg>